<svg xmlns="http://www.w3.org/2000/svg" viewBox="0 0 206 55"><path fill="#da2128" d="M114.89 35.73c0-12.6-14.44-12.83-14.44-19.62 0-3 2.32-5.65 8.27-5.65a25.46 25.46 0 0 1 7.33 1.32l2.08-10.59a57.57 57.57 0 0 0-9.11-.77c-14.37 0-21.4 8.42-21.4 18.46 0 12.44 14.37 12.29 14.37 19 0 3.94-3 6.1-8.81 6.1a24.94 24.94 0 0 1-8.12-1.46v11.5a50.87 50.87 0 0 0 7.43.54c13.21 0 22.4-8.41 22.4-18.84"/><path fill="#da2128" d="M139.05 25.97h-7.63l-2.77 14.7c-.66 3.49-.07 4.51 2.47 4.51a17.72 17.72 0 0 0 4.22-.51l-1.17 8.75a34.9 34.9 0 0 1-7.85 1c-8 0-10.4-3.78-8.73-12.8l2.91-15.65h-5.38l1.74-8.55h5.32l1.16-5.89 11.27-2.67-1.6 8.56h7.71Zm19.88-.55c-6.77 0-10.34 8.8-10.34 15.5 0 2.76.66 4 2.12 4 4.07 0 9.89-10.19 11.2-17.1l.36-2a13.67 13.67 0 0 0-3.34-.44m9.17 28.23h-10.7a96.5 96.5 0 0 1 2.91-9.39h-.15c-3.13 5.24-7.85 10.26-14 10.26-5.75 0-8.8-3.7-8.8-11.5 0-13.89 7.64-26.33 23.57-26.33a73.31 73.31 0 0 1 13.82 1.24c-2.76 14-5 26.11-6.61 35.72m28.29-26.26c-4.51-1.59-10.62 5-13.1 18.63l-1.37 7.64h-10.92l3.64-18.92c.87-4.44 2.4-12.87 3.06-17.24h10.5a67.81 67.81 0 0 1-2.69 9.31h.14c3.64-6.91 7.35-10.91 13.1-10.11Z"/><path fill="#231f20" d="m8.08 13.05-.84 4.6h11.42l-6.82 35.74h5.32l6.87-35.74h11.36l.84-4.6H8.08zm45.83 40.37h-5.26l3.65-19c.9-4.66.06-6.69-2.63-6.69-5.5 0-11.59 11.65-13 19l-1.23 6.69h-5.26l7.65-40.21h5.26l-2.85 15.11a7.25 7.25 0 0 1-.78 2.42c-.31.71-.09.31-.06.27 2.86-4.71 7-7.92 12.19-7.92 5.5 0 7.35 3.88 6.22 10.1Zm11.8-13.12a20.76 20.76 0 0 0-.3 3.47c0 4.6 1.61 5.8 6.39 5.8a22.82 22.82 0 0 0 8.31-1.68l.18 4.19a27.88 27.88 0 0 1-10.34 1.85c-6.82 0-10-2.93-10-9.63 0-11.53 6.45-21.15 16.25-21.15 6.34 0 8.73 3.22 8.73 6.75 0 6.4-6.51 9.92-19.24 10.4m9.92-13.09c-4.72 0-7.89 4.13-9.27 9.15 9.21-.36 13.27-2.22 13.27-5.8 0-2.16-1.61-3.35-4-3.35"/></svg>